<?xml version="1.0" encoding="UTF-8" standalone="no"?>
<!DOCTYPE svg PUBLIC "-//W3C//DTD SVG 1.1//EN"
 "http://www.w3.org/Graphics/SVG/1.1/DTD/svg11.dtd">
<!-- Generated by graphviz version 2.38.0 (20140413.2041)
 -->
<!-- Title: snakemake_dag Pages: 1 -->
<svg width="2143pt" height="486pt"
 viewBox="0.00 0.00 2142.50 486.00" xmlns="http://www.w3.org/2000/svg" xmlns:xlink="http://www.w3.org/1999/xlink">
<g id="graph0" class="graph" transform="scale(1 1) rotate(0) translate(4 482)">
<title>snakemake_dag</title>
<polygon fill="white" stroke="none" points="-4,4 -4,-482 2138.5,-482 2138.5,4 -4,4"/>
<!-- 0 -->
<g id="node1" class="node"><title>0</title>
<path fill="none" stroke="#d8ac56" stroke-width="2" d="M1083.5,-36C1083.5,-36 1053.5,-36 1053.5,-36 1047.5,-36 1041.5,-30 1041.5,-24 1041.5,-24 1041.5,-12 1041.5,-12 1041.5,-6 1047.5,-0 1053.5,-0 1053.5,-0 1083.5,-0 1083.5,-0 1089.5,-0 1095.5,-6 1095.5,-12 1095.5,-12 1095.5,-24 1095.5,-24 1095.5,-30 1089.5,-36 1083.5,-36"/>
<text text-anchor="middle" x="1068.5" y="-15.5" font-family="sans" font-size="10.00">all_ldne</text>
</g>
<!-- 1 -->
<g id="node2" class="node"><title>1</title>
<path fill="none" stroke="#56a9d8" stroke-width="2" d="M176.5,-108C176.5,-108 142.5,-108 142.5,-108 136.5,-108 130.5,-102 130.5,-96 130.5,-96 130.5,-84 130.5,-84 130.5,-78 136.5,-72 142.5,-72 142.5,-72 176.5,-72 176.5,-72 182.5,-72 188.5,-78 188.5,-84 188.5,-84 188.5,-96 188.5,-96 188.5,-102 182.5,-108 176.5,-108"/>
<text text-anchor="middle" x="159.5" y="-87.5" font-family="sans" font-size="10.00">run_ldne</text>
</g>
<!-- 1&#45;&gt;0 -->
<g id="edge1" class="edge"><title>1&#45;&gt;0</title>
<path fill="none" stroke="grey" stroke-width="2" d="M188.753,-85.9567C223.661,-82.3755 283.805,-76.3649 335.5,-72 601.881,-49.5079 923.23,-28.3306 1031.13,-21.3824"/>
<polygon fill="grey" stroke="grey" stroke-width="2" points="1031.44,-24.8701 1041.19,-20.7361 1030.99,-17.8845 1031.44,-24.8701"/>
</g>
<!-- 2 -->
<g id="node3" class="node"><title>2</title>
<path fill="none" stroke="#56a9d8" stroke-width="2" d="M390.5,-108C390.5,-108 356.5,-108 356.5,-108 350.5,-108 344.5,-102 344.5,-96 344.5,-96 344.5,-84 344.5,-84 344.5,-78 350.5,-72 356.5,-72 356.5,-72 390.5,-72 390.5,-72 396.5,-72 402.5,-78 402.5,-84 402.5,-84 402.5,-96 402.5,-96 402.5,-102 396.5,-108 390.5,-108"/>
<text text-anchor="middle" x="373.5" y="-87.5" font-family="sans" font-size="10.00">run_ldne</text>
</g>
<!-- 2&#45;&gt;0 -->
<g id="edge2" class="edge"><title>2&#45;&gt;0</title>
<path fill="none" stroke="grey" stroke-width="2" d="M402.919,-86.0369C514.008,-74.8481 907.906,-35.1749 1031.27,-22.7494"/>
<polygon fill="grey" stroke="grey" stroke-width="2" points="1031.76,-26.2184 1041.36,-21.7338 1031.06,-19.2536 1031.76,-26.2184"/>
</g>
<!-- 3 -->
<g id="node4" class="node"><title>3</title>
<path fill="none" stroke="#56a9d8" stroke-width="2" d="M604.5,-108C604.5,-108 570.5,-108 570.5,-108 564.5,-108 558.5,-102 558.5,-96 558.5,-96 558.5,-84 558.5,-84 558.5,-78 564.5,-72 570.5,-72 570.5,-72 604.5,-72 604.5,-72 610.5,-72 616.5,-78 616.5,-84 616.5,-84 616.5,-96 616.5,-96 616.5,-102 610.5,-108 604.5,-108"/>
<text text-anchor="middle" x="587.5" y="-87.5" font-family="sans" font-size="10.00">run_ldne</text>
</g>
<!-- 3&#45;&gt;0 -->
<g id="edge3" class="edge"><title>3&#45;&gt;0</title>
<path fill="none" stroke="grey" stroke-width="2" d="M616.505,-84.7788C699.624,-72.6825 938.626,-37.9006 1031.22,-24.4248"/>
<polygon fill="grey" stroke="grey" stroke-width="2" points="1031.87,-27.8679 1041.26,-22.9642 1030.86,-20.9409 1031.87,-27.8679"/>
</g>
<!-- 4 -->
<g id="node5" class="node"><title>4</title>
<path fill="none" stroke="#56a9d8" stroke-width="2" d="M818.5,-108C818.5,-108 784.5,-108 784.5,-108 778.5,-108 772.5,-102 772.5,-96 772.5,-96 772.5,-84 772.5,-84 772.5,-78 778.5,-72 784.5,-72 784.5,-72 818.5,-72 818.5,-72 824.5,-72 830.5,-78 830.5,-84 830.5,-84 830.5,-96 830.5,-96 830.5,-102 824.5,-108 818.5,-108"/>
<text text-anchor="middle" x="801.5" y="-87.5" font-family="sans" font-size="10.00">run_ldne</text>
</g>
<!-- 4&#45;&gt;0 -->
<g id="edge4" class="edge"><title>4&#45;&gt;0</title>
<path fill="none" stroke="grey" stroke-width="2" d="M830.582,-81.3755C879.467,-68.5592 978.014,-42.7228 1031.66,-28.6575"/>
<polygon fill="grey" stroke="grey" stroke-width="2" points="1032.67,-32.013 1041.45,-26.0914 1030.89,-25.2419 1032.67,-32.013"/>
</g>
<!-- 5 -->
<g id="node6" class="node"><title>5</title>
<path fill="none" stroke="#56a9d8" stroke-width="2" d="M1032.5,-108C1032.5,-108 998.5,-108 998.5,-108 992.5,-108 986.5,-102 986.5,-96 986.5,-96 986.5,-84 986.5,-84 986.5,-78 992.5,-72 998.5,-72 998.5,-72 1032.5,-72 1032.5,-72 1038.5,-72 1044.5,-78 1044.5,-84 1044.5,-84 1044.5,-96 1044.5,-96 1044.5,-102 1038.5,-108 1032.5,-108"/>
<text text-anchor="middle" x="1015.5" y="-87.5" font-family="sans" font-size="10.00">run_ldne</text>
</g>
<!-- 5&#45;&gt;0 -->
<g id="edge5" class="edge"><title>5&#45;&gt;0</title>
<path fill="none" stroke="grey" stroke-width="2" d="M1028.6,-71.6966C1034.89,-63.3893 1042.55,-53.2771 1049.46,-44.1407"/>
<polygon fill="grey" stroke="grey" stroke-width="2" points="1052.3,-46.1897 1055.55,-36.1043 1046.72,-41.9642 1052.3,-46.1897"/>
</g>
<!-- 6 -->
<g id="node7" class="node"><title>6</title>
<path fill="none" stroke="#56a9d8" stroke-width="2" d="M1139.5,-108C1139.5,-108 1105.5,-108 1105.5,-108 1099.5,-108 1093.5,-102 1093.5,-96 1093.5,-96 1093.5,-84 1093.5,-84 1093.5,-78 1099.5,-72 1105.5,-72 1105.5,-72 1139.5,-72 1139.5,-72 1145.5,-72 1151.5,-78 1151.5,-84 1151.5,-84 1151.5,-96 1151.5,-96 1151.5,-102 1145.5,-108 1139.5,-108"/>
<text text-anchor="middle" x="1122.5" y="-87.5" font-family="sans" font-size="10.00">run_ldne</text>
</g>
<!-- 6&#45;&gt;0 -->
<g id="edge6" class="edge"><title>6&#45;&gt;0</title>
<path fill="none" stroke="grey" stroke-width="2" d="M1109.15,-71.6966C1102.74,-63.3893 1094.94,-53.2771 1087.89,-44.1407"/>
<polygon fill="grey" stroke="grey" stroke-width="2" points="1090.57,-41.8844 1081.69,-36.1043 1085.03,-46.16 1090.57,-41.8844"/>
</g>
<!-- 7 -->
<g id="node8" class="node"><title>7</title>
<path fill="none" stroke="#56a9d8" stroke-width="2" d="M1353.5,-108C1353.5,-108 1319.5,-108 1319.5,-108 1313.5,-108 1307.5,-102 1307.5,-96 1307.5,-96 1307.5,-84 1307.5,-84 1307.5,-78 1313.5,-72 1319.5,-72 1319.5,-72 1353.5,-72 1353.5,-72 1359.5,-72 1365.5,-78 1365.5,-84 1365.5,-84 1365.5,-96 1365.5,-96 1365.5,-102 1359.5,-108 1353.5,-108"/>
<text text-anchor="middle" x="1336.5" y="-87.5" font-family="sans" font-size="10.00">run_ldne</text>
</g>
<!-- 7&#45;&gt;0 -->
<g id="edge7" class="edge"><title>7&#45;&gt;0</title>
<path fill="none" stroke="grey" stroke-width="2" d="M1307.31,-81.3755C1258.24,-68.5592 1159.32,-42.7228 1105.47,-28.6575"/>
<polygon fill="grey" stroke="grey" stroke-width="2" points="1106.21,-25.2322 1095.65,-26.0914 1104.44,-32.005 1106.21,-25.2322"/>
</g>
<!-- 8 -->
<g id="node9" class="node"><title>8</title>
<path fill="none" stroke="#56a9d8" stroke-width="2" d="M1567.5,-108C1567.5,-108 1533.5,-108 1533.5,-108 1527.5,-108 1521.5,-102 1521.5,-96 1521.5,-96 1521.5,-84 1521.5,-84 1521.5,-78 1527.5,-72 1533.5,-72 1533.5,-72 1567.5,-72 1567.5,-72 1573.5,-72 1579.5,-78 1579.5,-84 1579.5,-84 1579.5,-96 1579.5,-96 1579.5,-102 1573.5,-108 1567.5,-108"/>
<text text-anchor="middle" x="1550.5" y="-87.5" font-family="sans" font-size="10.00">run_ldne</text>
</g>
<!-- 8&#45;&gt;0 -->
<g id="edge8" class="edge"><title>8&#45;&gt;0</title>
<path fill="none" stroke="grey" stroke-width="2" d="M1521.43,-84.7788C1438.14,-72.6825 1198.64,-37.9006 1105.85,-24.4248"/>
<polygon fill="grey" stroke="grey" stroke-width="2" points="1106.2,-20.9378 1095.8,-22.9642 1105.19,-27.8651 1106.2,-20.9378"/>
</g>
<!-- 9 -->
<g id="node10" class="node"><title>9</title>
<path fill="none" stroke="#56a9d8" stroke-width="2" d="M1781.5,-108C1781.5,-108 1747.5,-108 1747.5,-108 1741.5,-108 1735.5,-102 1735.5,-96 1735.5,-96 1735.5,-84 1735.5,-84 1735.5,-78 1741.5,-72 1747.5,-72 1747.5,-72 1781.5,-72 1781.5,-72 1787.5,-72 1793.5,-78 1793.5,-84 1793.5,-84 1793.5,-96 1793.5,-96 1793.5,-102 1787.5,-108 1781.5,-108"/>
<text text-anchor="middle" x="1764.5" y="-87.5" font-family="sans" font-size="10.00">run_ldne</text>
</g>
<!-- 9&#45;&gt;0 -->
<g id="edge9" class="edge"><title>9&#45;&gt;0</title>
<path fill="none" stroke="grey" stroke-width="2" d="M1735.48,-86.0813C1624.86,-74.9559 1229.66,-35.2083 1105.86,-22.7574"/>
<polygon fill="grey" stroke="grey" stroke-width="2" points="1106.04,-19.258 1095.74,-21.7396 1105.34,-26.2228 1106.04,-19.258"/>
</g>
<!-- 10 -->
<g id="node11" class="node"><title>10</title>
<path fill="none" stroke="#56a9d8" stroke-width="2" d="M1995.5,-108C1995.5,-108 1961.5,-108 1961.5,-108 1955.5,-108 1949.5,-102 1949.5,-96 1949.5,-96 1949.5,-84 1949.5,-84 1949.5,-78 1955.5,-72 1961.5,-72 1961.5,-72 1995.5,-72 1995.5,-72 2001.5,-72 2007.5,-78 2007.5,-84 2007.5,-84 2007.5,-96 2007.5,-96 2007.5,-102 2001.5,-108 1995.5,-108"/>
<text text-anchor="middle" x="1978.5" y="-87.5" font-family="sans" font-size="10.00">run_ldne</text>
</g>
<!-- 10&#45;&gt;0 -->
<g id="edge10" class="edge"><title>10&#45;&gt;0</title>
<path fill="none" stroke="grey" stroke-width="2" d="M1949.25,-85.9558C1914.34,-82.3738 1854.2,-76.3624 1802.5,-72 1535.45,-49.4645 1213.23,-28.2753 1105.55,-21.3567"/>
<polygon fill="grey" stroke="grey" stroke-width="2" points="1105.72,-17.8605 1095.51,-20.7134 1105.27,-24.8461 1105.72,-17.8605"/>
</g>
<!-- 11 -->
<g id="node12" class="node"><title>11</title>
<path fill="none" stroke="#56d8d8" stroke-width="2" d="M80.5,-182.5C80.5,-182.5 24.5,-182.5 24.5,-182.5 18.5,-182.5 12.5,-176.5 12.5,-170.5 12.5,-170.5 12.5,-158.5 12.5,-158.5 12.5,-152.5 18.5,-146.5 24.5,-146.5 24.5,-146.5 80.5,-146.5 80.5,-146.5 86.5,-146.5 92.5,-152.5 92.5,-158.5 92.5,-158.5 92.5,-170.5 92.5,-170.5 92.5,-176.5 86.5,-182.5 80.5,-182.5"/>
<text text-anchor="middle" x="52.5" y="-162" font-family="sans" font-size="10.00">genepop2dat</text>
</g>
<!-- 11&#45;&gt;1 -->
<g id="edge11" class="edge"><title>11&#45;&gt;1</title>
<path fill="none" stroke="grey" stroke-width="2" d="M77.8575,-146.319C92.2491,-136.567 110.439,-124.242 125.994,-113.702"/>
<polygon fill="grey" stroke="grey" stroke-width="2" points="128.009,-116.565 134.325,-108.058 124.083,-110.77 128.009,-116.565"/>
</g>
<!-- 12 -->
<g id="node13" class="node"><title>12</title>
<path fill="none" stroke="#80d856" stroke-width="2" stroke-dasharray="5,2" d="M196.5,-185C196.5,-185 122.5,-185 122.5,-185 116.5,-185 110.5,-179 110.5,-173 110.5,-173 110.5,-156 110.5,-156 110.5,-150 116.5,-144 122.5,-144 122.5,-144 196.5,-144 196.5,-144 202.5,-144 208.5,-150 208.5,-156 208.5,-156 208.5,-173 208.5,-173 208.5,-179 202.5,-185 196.5,-185"/>
<text text-anchor="middle" x="159.5" y="-173" font-family="sans" font-size="10.00">create_batch_file</text>
<text text-anchor="middle" x="159.5" y="-162" font-family="sans" font-size="10.00">chrom: 3L</text>
<text text-anchor="middle" x="159.5" y="-151" font-family="sans" font-size="10.00">pop: KE</text>
</g>
<!-- 12&#45;&gt;1 -->
<g id="edge12" class="edge"><title>12&#45;&gt;1</title>
<path fill="none" stroke="grey" stroke-width="2" d="M159.5,-143.689C159.5,-135.907 159.5,-126.842 159.5,-118.447"/>
<polygon fill="grey" stroke="grey" stroke-width="2" points="163,-118.319 159.5,-108.319 156,-118.32 163,-118.319"/>
</g>
<!-- 13 -->
<g id="node14" class="node"><title>13</title>
<path fill="none" stroke="#56d8d8" stroke-width="2" d="M294.5,-182.5C294.5,-182.5 238.5,-182.5 238.5,-182.5 232.5,-182.5 226.5,-176.5 226.5,-170.5 226.5,-170.5 226.5,-158.5 226.5,-158.5 226.5,-152.5 232.5,-146.5 238.5,-146.5 238.5,-146.5 294.5,-146.5 294.5,-146.5 300.5,-146.5 306.5,-152.5 306.5,-158.5 306.5,-158.5 306.5,-170.5 306.5,-170.5 306.5,-176.5 300.5,-182.5 294.5,-182.5"/>
<text text-anchor="middle" x="266.5" y="-162" font-family="sans" font-size="10.00">genepop2dat</text>
</g>
<!-- 13&#45;&gt;2 -->
<g id="edge13" class="edge"><title>13&#45;&gt;2</title>
<path fill="none" stroke="grey" stroke-width="2" d="M291.858,-146.319C306.249,-136.567 324.439,-124.242 339.994,-113.702"/>
<polygon fill="grey" stroke="grey" stroke-width="2" points="342.009,-116.565 348.325,-108.058 338.083,-110.77 342.009,-116.565"/>
</g>
<!-- 14 -->
<g id="node15" class="node"><title>14</title>
<path fill="none" stroke="#80d856" stroke-width="2" stroke-dasharray="5,2" d="M410.5,-185C410.5,-185 336.5,-185 336.5,-185 330.5,-185 324.5,-179 324.5,-173 324.5,-173 324.5,-156 324.5,-156 324.5,-150 330.5,-144 336.5,-144 336.5,-144 410.5,-144 410.5,-144 416.5,-144 422.5,-150 422.5,-156 422.5,-156 422.5,-173 422.5,-173 422.5,-179 416.5,-185 410.5,-185"/>
<text text-anchor="middle" x="373.5" y="-173" font-family="sans" font-size="10.00">create_batch_file</text>
<text text-anchor="middle" x="373.5" y="-162" font-family="sans" font-size="10.00">chrom: 3R</text>
<text text-anchor="middle" x="373.5" y="-151" font-family="sans" font-size="10.00">pop: KE</text>
</g>
<!-- 14&#45;&gt;2 -->
<g id="edge14" class="edge"><title>14&#45;&gt;2</title>
<path fill="none" stroke="grey" stroke-width="2" d="M373.5,-143.689C373.5,-135.907 373.5,-126.842 373.5,-118.447"/>
<polygon fill="grey" stroke="grey" stroke-width="2" points="377,-118.319 373.5,-108.319 370,-118.32 377,-118.319"/>
</g>
<!-- 15 -->
<g id="node16" class="node"><title>15</title>
<path fill="none" stroke="#56d8d8" stroke-width="2" d="M508.5,-182.5C508.5,-182.5 452.5,-182.5 452.5,-182.5 446.5,-182.5 440.5,-176.5 440.5,-170.5 440.5,-170.5 440.5,-158.5 440.5,-158.5 440.5,-152.5 446.5,-146.5 452.5,-146.5 452.5,-146.5 508.5,-146.5 508.5,-146.5 514.5,-146.5 520.5,-152.5 520.5,-158.5 520.5,-158.5 520.5,-170.5 520.5,-170.5 520.5,-176.5 514.5,-182.5 508.5,-182.5"/>
<text text-anchor="middle" x="480.5" y="-162" font-family="sans" font-size="10.00">genepop2dat</text>
</g>
<!-- 15&#45;&gt;3 -->
<g id="edge15" class="edge"><title>15&#45;&gt;3</title>
<path fill="none" stroke="grey" stroke-width="2" d="M505.858,-146.319C520.249,-136.567 538.439,-124.242 553.994,-113.702"/>
<polygon fill="grey" stroke="grey" stroke-width="2" points="556.009,-116.565 562.325,-108.058 552.083,-110.77 556.009,-116.565"/>
</g>
<!-- 16 -->
<g id="node17" class="node"><title>16</title>
<path fill="none" stroke="#80d856" stroke-width="2" stroke-dasharray="5,2" d="M624.5,-185C624.5,-185 550.5,-185 550.5,-185 544.5,-185 538.5,-179 538.5,-173 538.5,-173 538.5,-156 538.5,-156 538.5,-150 544.5,-144 550.5,-144 550.5,-144 624.5,-144 624.5,-144 630.5,-144 636.5,-150 636.5,-156 636.5,-156 636.5,-173 636.5,-173 636.5,-179 630.5,-185 624.5,-185"/>
<text text-anchor="middle" x="587.5" y="-173" font-family="sans" font-size="10.00">create_batch_file</text>
<text text-anchor="middle" x="587.5" y="-162" font-family="sans" font-size="10.00">chrom: 3L</text>
<text text-anchor="middle" x="587.5" y="-151" font-family="sans" font-size="10.00">pop: UGgam</text>
</g>
<!-- 16&#45;&gt;3 -->
<g id="edge16" class="edge"><title>16&#45;&gt;3</title>
<path fill="none" stroke="grey" stroke-width="2" d="M587.5,-143.689C587.5,-135.907 587.5,-126.842 587.5,-118.447"/>
<polygon fill="grey" stroke="grey" stroke-width="2" points="591,-118.319 587.5,-108.319 584,-118.32 591,-118.319"/>
</g>
<!-- 17 -->
<g id="node18" class="node"><title>17</title>
<path fill="none" stroke="#56d8d8" stroke-width="2" d="M722.5,-182.5C722.5,-182.5 666.5,-182.5 666.5,-182.5 660.5,-182.5 654.5,-176.5 654.5,-170.5 654.5,-170.5 654.5,-158.5 654.5,-158.5 654.5,-152.5 660.5,-146.5 666.5,-146.5 666.5,-146.5 722.5,-146.5 722.5,-146.5 728.5,-146.5 734.5,-152.5 734.5,-158.5 734.5,-158.5 734.5,-170.5 734.5,-170.5 734.5,-176.5 728.5,-182.5 722.5,-182.5"/>
<text text-anchor="middle" x="694.5" y="-162" font-family="sans" font-size="10.00">genepop2dat</text>
</g>
<!-- 17&#45;&gt;4 -->
<g id="edge17" class="edge"><title>17&#45;&gt;4</title>
<path fill="none" stroke="grey" stroke-width="2" d="M719.858,-146.319C734.249,-136.567 752.439,-124.242 767.994,-113.702"/>
<polygon fill="grey" stroke="grey" stroke-width="2" points="770.009,-116.565 776.325,-108.058 766.083,-110.77 770.009,-116.565"/>
</g>
<!-- 18 -->
<g id="node19" class="node"><title>18</title>
<path fill="none" stroke="#80d856" stroke-width="2" stroke-dasharray="5,2" d="M838.5,-185C838.5,-185 764.5,-185 764.5,-185 758.5,-185 752.5,-179 752.5,-173 752.5,-173 752.5,-156 752.5,-156 752.5,-150 758.5,-144 764.5,-144 764.5,-144 838.5,-144 838.5,-144 844.5,-144 850.5,-150 850.5,-156 850.5,-156 850.5,-173 850.5,-173 850.5,-179 844.5,-185 838.5,-185"/>
<text text-anchor="middle" x="801.5" y="-173" font-family="sans" font-size="10.00">create_batch_file</text>
<text text-anchor="middle" x="801.5" y="-162" font-family="sans" font-size="10.00">chrom: 3R</text>
<text text-anchor="middle" x="801.5" y="-151" font-family="sans" font-size="10.00">pop: UGgam</text>
</g>
<!-- 18&#45;&gt;4 -->
<g id="edge18" class="edge"><title>18&#45;&gt;4</title>
<path fill="none" stroke="grey" stroke-width="2" d="M801.5,-143.689C801.5,-135.907 801.5,-126.842 801.5,-118.447"/>
<polygon fill="grey" stroke="grey" stroke-width="2" points="805,-118.319 801.5,-108.319 798,-118.32 805,-118.319"/>
</g>
<!-- 19 -->
<g id="node20" class="node"><title>19</title>
<path fill="none" stroke="#56d8d8" stroke-width="2" d="M936.5,-182.5C936.5,-182.5 880.5,-182.5 880.5,-182.5 874.5,-182.5 868.5,-176.5 868.5,-170.5 868.5,-170.5 868.5,-158.5 868.5,-158.5 868.5,-152.5 874.5,-146.5 880.5,-146.5 880.5,-146.5 936.5,-146.5 936.5,-146.5 942.5,-146.5 948.5,-152.5 948.5,-158.5 948.5,-158.5 948.5,-170.5 948.5,-170.5 948.5,-176.5 942.5,-182.5 936.5,-182.5"/>
<text text-anchor="middle" x="908.5" y="-162" font-family="sans" font-size="10.00">genepop2dat</text>
</g>
<!-- 19&#45;&gt;5 -->
<g id="edge19" class="edge"><title>19&#45;&gt;5</title>
<path fill="none" stroke="grey" stroke-width="2" d="M933.858,-146.319C948.249,-136.567 966.439,-124.242 981.994,-113.702"/>
<polygon fill="grey" stroke="grey" stroke-width="2" points="984.009,-116.565 990.325,-108.058 980.083,-110.77 984.009,-116.565"/>
</g>
<!-- 20 -->
<g id="node21" class="node"><title>20</title>
<path fill="none" stroke="#80d856" stroke-width="2" stroke-dasharray="5,2" d="M1052.5,-185C1052.5,-185 978.5,-185 978.5,-185 972.5,-185 966.5,-179 966.5,-173 966.5,-173 966.5,-156 966.5,-156 966.5,-150 972.5,-144 978.5,-144 978.5,-144 1052.5,-144 1052.5,-144 1058.5,-144 1064.5,-150 1064.5,-156 1064.5,-156 1064.5,-173 1064.5,-173 1064.5,-179 1058.5,-185 1052.5,-185"/>
<text text-anchor="middle" x="1015.5" y="-173" font-family="sans" font-size="10.00">create_batch_file</text>
<text text-anchor="middle" x="1015.5" y="-162" font-family="sans" font-size="10.00">chrom: 3L</text>
<text text-anchor="middle" x="1015.5" y="-151" font-family="sans" font-size="10.00">pop: FRgam</text>
</g>
<!-- 20&#45;&gt;5 -->
<g id="edge20" class="edge"><title>20&#45;&gt;5</title>
<path fill="none" stroke="grey" stroke-width="2" d="M1015.5,-143.689C1015.5,-135.907 1015.5,-126.842 1015.5,-118.447"/>
<polygon fill="grey" stroke="grey" stroke-width="2" points="1019,-118.319 1015.5,-108.319 1012,-118.32 1019,-118.319"/>
</g>
<!-- 21 -->
<g id="node22" class="node"><title>21</title>
<path fill="none" stroke="#56d8d8" stroke-width="2" d="M1150.5,-182.5C1150.5,-182.5 1094.5,-182.5 1094.5,-182.5 1088.5,-182.5 1082.5,-176.5 1082.5,-170.5 1082.5,-170.5 1082.5,-158.5 1082.5,-158.5 1082.5,-152.5 1088.5,-146.5 1094.5,-146.5 1094.5,-146.5 1150.5,-146.5 1150.5,-146.5 1156.5,-146.5 1162.5,-152.5 1162.5,-158.5 1162.5,-158.5 1162.5,-170.5 1162.5,-170.5 1162.5,-176.5 1156.5,-182.5 1150.5,-182.5"/>
<text text-anchor="middle" x="1122.5" y="-162" font-family="sans" font-size="10.00">genepop2dat</text>
</g>
<!-- 21&#45;&gt;6 -->
<g id="edge21" class="edge"><title>21&#45;&gt;6</title>
<path fill="none" stroke="grey" stroke-width="2" d="M1122.5,-146.319C1122.5,-137.922 1122.5,-127.616 1122.5,-118.186"/>
<polygon fill="grey" stroke="grey" stroke-width="2" points="1126,-118.058 1122.5,-108.058 1119,-118.058 1126,-118.058"/>
</g>
<!-- 22 -->
<g id="node23" class="node"><title>22</title>
<path fill="none" stroke="#80d856" stroke-width="2" stroke-dasharray="5,2" d="M1266.5,-185C1266.5,-185 1192.5,-185 1192.5,-185 1186.5,-185 1180.5,-179 1180.5,-173 1180.5,-173 1180.5,-156 1180.5,-156 1180.5,-150 1186.5,-144 1192.5,-144 1192.5,-144 1266.5,-144 1266.5,-144 1272.5,-144 1278.5,-150 1278.5,-156 1278.5,-156 1278.5,-173 1278.5,-173 1278.5,-179 1272.5,-185 1266.5,-185"/>
<text text-anchor="middle" x="1229.5" y="-173" font-family="sans" font-size="10.00">create_batch_file</text>
<text text-anchor="middle" x="1229.5" y="-162" font-family="sans" font-size="10.00">chrom: 3R</text>
<text text-anchor="middle" x="1229.5" y="-151" font-family="sans" font-size="10.00">pop: FRgam</text>
</g>
<!-- 22&#45;&gt;6 -->
<g id="edge22" class="edge"><title>22&#45;&gt;6</title>
<path fill="none" stroke="grey" stroke-width="2" d="M1200.54,-143.88C1186.91,-134.643 1170.56,-123.565 1156.36,-113.941"/>
<polygon fill="grey" stroke="grey" stroke-width="2" points="1158.08,-110.878 1147.84,-108.166 1154.15,-116.673 1158.08,-110.878"/>
</g>
<!-- 23 -->
<g id="node24" class="node"><title>23</title>
<path fill="none" stroke="#56d8d8" stroke-width="2" d="M1364.5,-182.5C1364.5,-182.5 1308.5,-182.5 1308.5,-182.5 1302.5,-182.5 1296.5,-176.5 1296.5,-170.5 1296.5,-170.5 1296.5,-158.5 1296.5,-158.5 1296.5,-152.5 1302.5,-146.5 1308.5,-146.5 1308.5,-146.5 1364.5,-146.5 1364.5,-146.5 1370.5,-146.5 1376.5,-152.5 1376.5,-158.5 1376.5,-158.5 1376.5,-170.5 1376.5,-170.5 1376.5,-176.5 1370.5,-182.5 1364.5,-182.5"/>
<text text-anchor="middle" x="1336.5" y="-162" font-family="sans" font-size="10.00">genepop2dat</text>
</g>
<!-- 23&#45;&gt;7 -->
<g id="edge23" class="edge"><title>23&#45;&gt;7</title>
<path fill="none" stroke="grey" stroke-width="2" d="M1336.5,-146.319C1336.5,-137.922 1336.5,-127.616 1336.5,-118.186"/>
<polygon fill="grey" stroke="grey" stroke-width="2" points="1340,-118.058 1336.5,-108.058 1333,-118.058 1340,-118.058"/>
</g>
<!-- 24 -->
<g id="node25" class="node"><title>24</title>
<path fill="none" stroke="#80d856" stroke-width="2" stroke-dasharray="5,2" d="M1480.5,-185C1480.5,-185 1406.5,-185 1406.5,-185 1400.5,-185 1394.5,-179 1394.5,-173 1394.5,-173 1394.5,-156 1394.5,-156 1394.5,-150 1400.5,-144 1406.5,-144 1406.5,-144 1480.5,-144 1480.5,-144 1486.5,-144 1492.5,-150 1492.5,-156 1492.5,-156 1492.5,-173 1492.5,-173 1492.5,-179 1486.5,-185 1480.5,-185"/>
<text text-anchor="middle" x="1443.5" y="-173" font-family="sans" font-size="10.00">create_batch_file</text>
<text text-anchor="middle" x="1443.5" y="-162" font-family="sans" font-size="10.00">chrom: 3L</text>
<text text-anchor="middle" x="1443.5" y="-151" font-family="sans" font-size="10.00">pop: GNgam</text>
</g>
<!-- 24&#45;&gt;7 -->
<g id="edge24" class="edge"><title>24&#45;&gt;7</title>
<path fill="none" stroke="grey" stroke-width="2" d="M1414.54,-143.88C1400.91,-134.643 1384.56,-123.565 1370.36,-113.941"/>
<polygon fill="grey" stroke="grey" stroke-width="2" points="1372.08,-110.878 1361.84,-108.166 1368.15,-116.673 1372.08,-110.878"/>
</g>
<!-- 25 -->
<g id="node26" class="node"><title>25</title>
<path fill="none" stroke="#56d8d8" stroke-width="2" d="M1578.5,-182.5C1578.5,-182.5 1522.5,-182.5 1522.5,-182.5 1516.5,-182.5 1510.5,-176.5 1510.5,-170.5 1510.5,-170.5 1510.5,-158.5 1510.5,-158.5 1510.5,-152.5 1516.5,-146.5 1522.5,-146.5 1522.5,-146.5 1578.5,-146.5 1578.5,-146.5 1584.5,-146.5 1590.5,-152.5 1590.5,-158.5 1590.5,-158.5 1590.5,-170.5 1590.5,-170.5 1590.5,-176.5 1584.5,-182.5 1578.5,-182.5"/>
<text text-anchor="middle" x="1550.5" y="-162" font-family="sans" font-size="10.00">genepop2dat</text>
</g>
<!-- 25&#45;&gt;8 -->
<g id="edge25" class="edge"><title>25&#45;&gt;8</title>
<path fill="none" stroke="grey" stroke-width="2" d="M1550.5,-146.319C1550.5,-137.922 1550.5,-127.616 1550.5,-118.186"/>
<polygon fill="grey" stroke="grey" stroke-width="2" points="1554,-118.058 1550.5,-108.058 1547,-118.058 1554,-118.058"/>
</g>
<!-- 26 -->
<g id="node27" class="node"><title>26</title>
<path fill="none" stroke="#80d856" stroke-width="2" stroke-dasharray="5,2" d="M1694.5,-185C1694.5,-185 1620.5,-185 1620.5,-185 1614.5,-185 1608.5,-179 1608.5,-173 1608.5,-173 1608.5,-156 1608.5,-156 1608.5,-150 1614.5,-144 1620.5,-144 1620.5,-144 1694.5,-144 1694.5,-144 1700.5,-144 1706.5,-150 1706.5,-156 1706.5,-156 1706.5,-173 1706.5,-173 1706.5,-179 1700.5,-185 1694.5,-185"/>
<text text-anchor="middle" x="1657.5" y="-173" font-family="sans" font-size="10.00">create_batch_file</text>
<text text-anchor="middle" x="1657.5" y="-162" font-family="sans" font-size="10.00">chrom: 3R</text>
<text text-anchor="middle" x="1657.5" y="-151" font-family="sans" font-size="10.00">pop: GNgam</text>
</g>
<!-- 26&#45;&gt;8 -->
<g id="edge26" class="edge"><title>26&#45;&gt;8</title>
<path fill="none" stroke="grey" stroke-width="2" d="M1628.54,-143.88C1614.91,-134.643 1598.56,-123.565 1584.36,-113.941"/>
<polygon fill="grey" stroke="grey" stroke-width="2" points="1586.08,-110.878 1575.84,-108.166 1582.15,-116.673 1586.08,-110.878"/>
</g>
<!-- 27 -->
<g id="node28" class="node"><title>27</title>
<path fill="none" stroke="#56d8d8" stroke-width="2" d="M1792.5,-182.5C1792.5,-182.5 1736.5,-182.5 1736.5,-182.5 1730.5,-182.5 1724.5,-176.5 1724.5,-170.5 1724.5,-170.5 1724.5,-158.5 1724.5,-158.5 1724.5,-152.5 1730.5,-146.5 1736.5,-146.5 1736.5,-146.5 1792.5,-146.5 1792.5,-146.5 1798.5,-146.5 1804.5,-152.5 1804.5,-158.5 1804.5,-158.5 1804.5,-170.5 1804.5,-170.5 1804.5,-176.5 1798.5,-182.5 1792.5,-182.5"/>
<text text-anchor="middle" x="1764.5" y="-162" font-family="sans" font-size="10.00">genepop2dat</text>
</g>
<!-- 27&#45;&gt;9 -->
<g id="edge27" class="edge"><title>27&#45;&gt;9</title>
<path fill="none" stroke="grey" stroke-width="2" d="M1764.5,-146.319C1764.5,-137.922 1764.5,-127.616 1764.5,-118.186"/>
<polygon fill="grey" stroke="grey" stroke-width="2" points="1768,-118.058 1764.5,-108.058 1761,-118.058 1768,-118.058"/>
</g>
<!-- 28 -->
<g id="node29" class="node"><title>28</title>
<path fill="none" stroke="#80d856" stroke-width="2" stroke-dasharray="5,2" d="M1908.5,-185C1908.5,-185 1834.5,-185 1834.5,-185 1828.5,-185 1822.5,-179 1822.5,-173 1822.5,-173 1822.5,-156 1822.5,-156 1822.5,-150 1828.5,-144 1834.5,-144 1834.5,-144 1908.5,-144 1908.5,-144 1914.5,-144 1920.5,-150 1920.5,-156 1920.5,-156 1920.5,-173 1920.5,-173 1920.5,-179 1914.5,-185 1908.5,-185"/>
<text text-anchor="middle" x="1871.5" y="-173" font-family="sans" font-size="10.00">create_batch_file</text>
<text text-anchor="middle" x="1871.5" y="-162" font-family="sans" font-size="10.00">chrom: 3L</text>
<text text-anchor="middle" x="1871.5" y="-151" font-family="sans" font-size="10.00">pop: GHcol</text>
</g>
<!-- 28&#45;&gt;9 -->
<g id="edge28" class="edge"><title>28&#45;&gt;9</title>
<path fill="none" stroke="grey" stroke-width="2" d="M1842.54,-143.88C1828.91,-134.643 1812.56,-123.565 1798.36,-113.941"/>
<polygon fill="grey" stroke="grey" stroke-width="2" points="1800.08,-110.878 1789.84,-108.166 1796.15,-116.673 1800.08,-110.878"/>
</g>
<!-- 29 -->
<g id="node30" class="node"><title>29</title>
<path fill="none" stroke="#56d8d8" stroke-width="2" d="M2006.5,-182.5C2006.5,-182.5 1950.5,-182.5 1950.5,-182.5 1944.5,-182.5 1938.5,-176.5 1938.5,-170.5 1938.5,-170.5 1938.5,-158.5 1938.5,-158.5 1938.5,-152.5 1944.5,-146.5 1950.5,-146.5 1950.5,-146.5 2006.5,-146.5 2006.5,-146.5 2012.5,-146.5 2018.5,-152.5 2018.5,-158.5 2018.5,-158.5 2018.5,-170.5 2018.5,-170.5 2018.5,-176.5 2012.5,-182.5 2006.5,-182.5"/>
<text text-anchor="middle" x="1978.5" y="-162" font-family="sans" font-size="10.00">genepop2dat</text>
</g>
<!-- 29&#45;&gt;10 -->
<g id="edge29" class="edge"><title>29&#45;&gt;10</title>
<path fill="none" stroke="grey" stroke-width="2" d="M1978.5,-146.319C1978.5,-137.922 1978.5,-127.616 1978.5,-118.186"/>
<polygon fill="grey" stroke="grey" stroke-width="2" points="1982,-118.058 1978.5,-108.058 1975,-118.058 1982,-118.058"/>
</g>
<!-- 30 -->
<g id="node31" class="node"><title>30</title>
<path fill="none" stroke="#80d856" stroke-width="2" stroke-dasharray="5,2" d="M2122.5,-185C2122.5,-185 2048.5,-185 2048.5,-185 2042.5,-185 2036.5,-179 2036.5,-173 2036.5,-173 2036.5,-156 2036.5,-156 2036.5,-150 2042.5,-144 2048.5,-144 2048.5,-144 2122.5,-144 2122.5,-144 2128.5,-144 2134.5,-150 2134.5,-156 2134.5,-156 2134.5,-173 2134.5,-173 2134.5,-179 2128.5,-185 2122.5,-185"/>
<text text-anchor="middle" x="2085.5" y="-173" font-family="sans" font-size="10.00">create_batch_file</text>
<text text-anchor="middle" x="2085.5" y="-162" font-family="sans" font-size="10.00">chrom: 3R</text>
<text text-anchor="middle" x="2085.5" y="-151" font-family="sans" font-size="10.00">pop: GHcol</text>
</g>
<!-- 30&#45;&gt;10 -->
<g id="edge30" class="edge"><title>30&#45;&gt;10</title>
<path fill="none" stroke="grey" stroke-width="2" d="M2056.54,-143.88C2042.91,-134.643 2026.56,-123.565 2012.36,-113.941"/>
<polygon fill="grey" stroke="grey" stroke-width="2" points="2014.08,-110.878 2003.84,-108.166 2010.15,-116.673 2014.08,-110.878"/>
</g>
<!-- 31 -->
<g id="node32" class="node"><title>31</title>
<path fill="none" stroke="#d85656" stroke-width="2" stroke-dasharray="5,2" d="M79.5,-257C79.5,-257 25.5,-257 25.5,-257 19.5,-257 13.5,-251 13.5,-245 13.5,-245 13.5,-233 13.5,-233 13.5,-227 19.5,-221 25.5,-221 25.5,-221 79.5,-221 79.5,-221 85.5,-221 91.5,-227 91.5,-233 91.5,-233 91.5,-245 91.5,-245 91.5,-251 85.5,-257 79.5,-257"/>
<text text-anchor="middle" x="52.5" y="-236.5" font-family="sans" font-size="10.00">vcf2genepop</text>
</g>
<!-- 31&#45;&gt;11 -->
<g id="edge31" class="edge"><title>31&#45;&gt;11</title>
<path fill="none" stroke="grey" stroke-width="2" d="M52.5,-220.819C52.5,-212.422 52.5,-202.116 52.5,-192.686"/>
<polygon fill="grey" stroke="grey" stroke-width="2" points="56.0001,-192.558 52.5,-182.558 49.0001,-192.558 56.0001,-192.558"/>
</g>
<!-- 32 -->
<g id="node33" class="node"><title>32</title>
<path fill="none" stroke="#d85656" stroke-width="2" stroke-dasharray="5,2" d="M293.5,-257C293.5,-257 239.5,-257 239.5,-257 233.5,-257 227.5,-251 227.5,-245 227.5,-245 227.5,-233 227.5,-233 227.5,-227 233.5,-221 239.5,-221 239.5,-221 293.5,-221 293.5,-221 299.5,-221 305.5,-227 305.5,-233 305.5,-233 305.5,-245 305.5,-245 305.5,-251 299.5,-257 293.5,-257"/>
<text text-anchor="middle" x="266.5" y="-236.5" font-family="sans" font-size="10.00">vcf2genepop</text>
</g>
<!-- 32&#45;&gt;13 -->
<g id="edge32" class="edge"><title>32&#45;&gt;13</title>
<path fill="none" stroke="grey" stroke-width="2" d="M266.5,-220.819C266.5,-212.422 266.5,-202.116 266.5,-192.686"/>
<polygon fill="grey" stroke="grey" stroke-width="2" points="270,-192.558 266.5,-182.558 263,-192.558 270,-192.558"/>
</g>
<!-- 33 -->
<g id="node34" class="node"><title>33</title>
<path fill="none" stroke="#d85656" stroke-width="2" d="M507.5,-257C507.5,-257 453.5,-257 453.5,-257 447.5,-257 441.5,-251 441.5,-245 441.5,-245 441.5,-233 441.5,-233 441.5,-227 447.5,-221 453.5,-221 453.5,-221 507.5,-221 507.5,-221 513.5,-221 519.5,-227 519.5,-233 519.5,-233 519.5,-245 519.5,-245 519.5,-251 513.5,-257 507.5,-257"/>
<text text-anchor="middle" x="480.5" y="-236.5" font-family="sans" font-size="10.00">vcf2genepop</text>
</g>
<!-- 33&#45;&gt;15 -->
<g id="edge33" class="edge"><title>33&#45;&gt;15</title>
<path fill="none" stroke="grey" stroke-width="2" d="M480.5,-220.819C480.5,-212.422 480.5,-202.116 480.5,-192.686"/>
<polygon fill="grey" stroke="grey" stroke-width="2" points="484,-192.558 480.5,-182.558 477,-192.558 484,-192.558"/>
</g>
<!-- 34 -->
<g id="node35" class="node"><title>34</title>
<path fill="none" stroke="#d85656" stroke-width="2" d="M721.5,-257C721.5,-257 667.5,-257 667.5,-257 661.5,-257 655.5,-251 655.5,-245 655.5,-245 655.5,-233 655.5,-233 655.5,-227 661.5,-221 667.5,-221 667.5,-221 721.5,-221 721.5,-221 727.5,-221 733.5,-227 733.5,-233 733.5,-233 733.5,-245 733.5,-245 733.5,-251 727.5,-257 721.5,-257"/>
<text text-anchor="middle" x="694.5" y="-236.5" font-family="sans" font-size="10.00">vcf2genepop</text>
</g>
<!-- 34&#45;&gt;17 -->
<g id="edge34" class="edge"><title>34&#45;&gt;17</title>
<path fill="none" stroke="grey" stroke-width="2" d="M694.5,-220.819C694.5,-212.422 694.5,-202.116 694.5,-192.686"/>
<polygon fill="grey" stroke="grey" stroke-width="2" points="698,-192.558 694.5,-182.558 691,-192.558 698,-192.558"/>
</g>
<!-- 35 -->
<g id="node36" class="node"><title>35</title>
<path fill="none" stroke="#d85656" stroke-width="2" stroke-dasharray="5,2" d="M935.5,-257C935.5,-257 881.5,-257 881.5,-257 875.5,-257 869.5,-251 869.5,-245 869.5,-245 869.5,-233 869.5,-233 869.5,-227 875.5,-221 881.5,-221 881.5,-221 935.5,-221 935.5,-221 941.5,-221 947.5,-227 947.5,-233 947.5,-233 947.5,-245 947.5,-245 947.5,-251 941.5,-257 935.5,-257"/>
<text text-anchor="middle" x="908.5" y="-236.5" font-family="sans" font-size="10.00">vcf2genepop</text>
</g>
<!-- 35&#45;&gt;19 -->
<g id="edge35" class="edge"><title>35&#45;&gt;19</title>
<path fill="none" stroke="grey" stroke-width="2" d="M908.5,-220.819C908.5,-212.422 908.5,-202.116 908.5,-192.686"/>
<polygon fill="grey" stroke="grey" stroke-width="2" points="912,-192.558 908.5,-182.558 905,-192.558 912,-192.558"/>
</g>
<!-- 36 -->
<g id="node37" class="node"><title>36</title>
<path fill="none" stroke="#d85656" stroke-width="2" stroke-dasharray="5,2" d="M1149.5,-257C1149.5,-257 1095.5,-257 1095.5,-257 1089.5,-257 1083.5,-251 1083.5,-245 1083.5,-245 1083.5,-233 1083.5,-233 1083.5,-227 1089.5,-221 1095.5,-221 1095.5,-221 1149.5,-221 1149.5,-221 1155.5,-221 1161.5,-227 1161.5,-233 1161.5,-233 1161.5,-245 1161.5,-245 1161.5,-251 1155.5,-257 1149.5,-257"/>
<text text-anchor="middle" x="1122.5" y="-236.5" font-family="sans" font-size="10.00">vcf2genepop</text>
</g>
<!-- 36&#45;&gt;21 -->
<g id="edge36" class="edge"><title>36&#45;&gt;21</title>
<path fill="none" stroke="grey" stroke-width="2" d="M1122.5,-220.819C1122.5,-212.422 1122.5,-202.116 1122.5,-192.686"/>
<polygon fill="grey" stroke="grey" stroke-width="2" points="1126,-192.558 1122.5,-182.558 1119,-192.558 1126,-192.558"/>
</g>
<!-- 37 -->
<g id="node38" class="node"><title>37</title>
<path fill="none" stroke="#d85656" stroke-width="2" d="M1363.5,-257C1363.5,-257 1309.5,-257 1309.5,-257 1303.5,-257 1297.5,-251 1297.5,-245 1297.5,-245 1297.5,-233 1297.5,-233 1297.5,-227 1303.5,-221 1309.5,-221 1309.5,-221 1363.5,-221 1363.5,-221 1369.5,-221 1375.5,-227 1375.5,-233 1375.5,-233 1375.5,-245 1375.5,-245 1375.5,-251 1369.5,-257 1363.5,-257"/>
<text text-anchor="middle" x="1336.5" y="-236.5" font-family="sans" font-size="10.00">vcf2genepop</text>
</g>
<!-- 37&#45;&gt;23 -->
<g id="edge37" class="edge"><title>37&#45;&gt;23</title>
<path fill="none" stroke="grey" stroke-width="2" d="M1336.5,-220.819C1336.5,-212.422 1336.5,-202.116 1336.5,-192.686"/>
<polygon fill="grey" stroke="grey" stroke-width="2" points="1340,-192.558 1336.5,-182.558 1333,-192.558 1340,-192.558"/>
</g>
<!-- 38 -->
<g id="node39" class="node"><title>38</title>
<path fill="none" stroke="#d85656" stroke-width="2" d="M1577.5,-257C1577.5,-257 1523.5,-257 1523.5,-257 1517.5,-257 1511.5,-251 1511.5,-245 1511.5,-245 1511.5,-233 1511.5,-233 1511.5,-227 1517.5,-221 1523.5,-221 1523.5,-221 1577.5,-221 1577.5,-221 1583.5,-221 1589.5,-227 1589.5,-233 1589.5,-233 1589.5,-245 1589.5,-245 1589.5,-251 1583.5,-257 1577.5,-257"/>
<text text-anchor="middle" x="1550.5" y="-236.5" font-family="sans" font-size="10.00">vcf2genepop</text>
</g>
<!-- 38&#45;&gt;25 -->
<g id="edge38" class="edge"><title>38&#45;&gt;25</title>
<path fill="none" stroke="grey" stroke-width="2" d="M1550.5,-220.819C1550.5,-212.422 1550.5,-202.116 1550.5,-192.686"/>
<polygon fill="grey" stroke="grey" stroke-width="2" points="1554,-192.558 1550.5,-182.558 1547,-192.558 1554,-192.558"/>
</g>
<!-- 39 -->
<g id="node40" class="node"><title>39</title>
<path fill="none" stroke="#d85656" stroke-width="2" d="M1791.5,-257C1791.5,-257 1737.5,-257 1737.5,-257 1731.5,-257 1725.5,-251 1725.5,-245 1725.5,-245 1725.5,-233 1725.5,-233 1725.5,-227 1731.5,-221 1737.5,-221 1737.5,-221 1791.5,-221 1791.5,-221 1797.5,-221 1803.5,-227 1803.5,-233 1803.5,-233 1803.5,-245 1803.5,-245 1803.5,-251 1797.5,-257 1791.5,-257"/>
<text text-anchor="middle" x="1764.5" y="-236.5" font-family="sans" font-size="10.00">vcf2genepop</text>
</g>
<!-- 39&#45;&gt;27 -->
<g id="edge39" class="edge"><title>39&#45;&gt;27</title>
<path fill="none" stroke="grey" stroke-width="2" d="M1764.5,-220.819C1764.5,-212.422 1764.5,-202.116 1764.5,-192.686"/>
<polygon fill="grey" stroke="grey" stroke-width="2" points="1768,-192.558 1764.5,-182.558 1761,-192.558 1768,-192.558"/>
</g>
<!-- 40 -->
<g id="node41" class="node"><title>40</title>
<path fill="none" stroke="#d85656" stroke-width="2" d="M2005.5,-257C2005.5,-257 1951.5,-257 1951.5,-257 1945.5,-257 1939.5,-251 1939.5,-245 1939.5,-245 1939.5,-233 1939.5,-233 1939.5,-227 1945.5,-221 1951.5,-221 1951.5,-221 2005.5,-221 2005.5,-221 2011.5,-221 2017.5,-227 2017.5,-233 2017.5,-233 2017.5,-245 2017.5,-245 2017.5,-251 2011.5,-257 2005.5,-257"/>
<text text-anchor="middle" x="1978.5" y="-236.5" font-family="sans" font-size="10.00">vcf2genepop</text>
</g>
<!-- 40&#45;&gt;29 -->
<g id="edge40" class="edge"><title>40&#45;&gt;29</title>
<path fill="none" stroke="grey" stroke-width="2" d="M1978.5,-220.819C1978.5,-212.422 1978.5,-202.116 1978.5,-192.686"/>
<polygon fill="grey" stroke="grey" stroke-width="2" points="1982,-192.558 1978.5,-182.558 1975,-192.558 1982,-192.558"/>
</g>
<!-- 41 -->
<g id="node42" class="node"><title>41</title>
<path fill="none" stroke="#afd856" stroke-width="2" stroke-dasharray="5,2" d="M79,-329C79,-329 26,-329 26,-329 20,-329 14,-323 14,-317 14,-317 14,-305 14,-305 14,-299 20,-293 26,-293 26,-293 79,-293 79,-293 85,-293 91,-299 91,-305 91,-305 91,-317 91,-317 91,-323 85,-329 79,-329"/>
<text text-anchor="middle" x="52.5" y="-308.5" font-family="sans" font-size="10.00">downsample</text>
</g>
<!-- 41&#45;&gt;31 -->
<g id="edge41" class="edge"><title>41&#45;&gt;31</title>
<path fill="none" stroke="grey" stroke-width="2" d="M52.5,-292.697C52.5,-284.983 52.5,-275.712 52.5,-267.112"/>
<polygon fill="grey" stroke="grey" stroke-width="2" points="56.0001,-267.104 52.5,-257.104 49.0001,-267.104 56.0001,-267.104"/>
</g>
<!-- 42 -->
<g id="node43" class="node"><title>42</title>
<path fill="none" stroke="#afd856" stroke-width="2" stroke-dasharray="5,2" d="M293,-329C293,-329 240,-329 240,-329 234,-329 228,-323 228,-317 228,-317 228,-305 228,-305 228,-299 234,-293 240,-293 240,-293 293,-293 293,-293 299,-293 305,-299 305,-305 305,-305 305,-317 305,-317 305,-323 299,-329 293,-329"/>
<text text-anchor="middle" x="266.5" y="-308.5" font-family="sans" font-size="10.00">downsample</text>
</g>
<!-- 42&#45;&gt;32 -->
<g id="edge42" class="edge"><title>42&#45;&gt;32</title>
<path fill="none" stroke="grey" stroke-width="2" d="M266.5,-292.697C266.5,-284.983 266.5,-275.712 266.5,-267.112"/>
<polygon fill="grey" stroke="grey" stroke-width="2" points="270,-267.104 266.5,-257.104 263,-267.104 270,-267.104"/>
</g>
<!-- 43 -->
<g id="node44" class="node"><title>43</title>
<path fill="none" stroke="#afd856" stroke-width="2" d="M507,-329C507,-329 454,-329 454,-329 448,-329 442,-323 442,-317 442,-317 442,-305 442,-305 442,-299 448,-293 454,-293 454,-293 507,-293 507,-293 513,-293 519,-299 519,-305 519,-305 519,-317 519,-317 519,-323 513,-329 507,-329"/>
<text text-anchor="middle" x="480.5" y="-308.5" font-family="sans" font-size="10.00">downsample</text>
</g>
<!-- 43&#45;&gt;33 -->
<g id="edge43" class="edge"><title>43&#45;&gt;33</title>
<path fill="none" stroke="grey" stroke-width="2" d="M480.5,-292.697C480.5,-284.983 480.5,-275.712 480.5,-267.112"/>
<polygon fill="grey" stroke="grey" stroke-width="2" points="484,-267.104 480.5,-257.104 477,-267.104 484,-267.104"/>
</g>
<!-- 44 -->
<g id="node45" class="node"><title>44</title>
<path fill="none" stroke="#afd856" stroke-width="2" d="M721,-329C721,-329 668,-329 668,-329 662,-329 656,-323 656,-317 656,-317 656,-305 656,-305 656,-299 662,-293 668,-293 668,-293 721,-293 721,-293 727,-293 733,-299 733,-305 733,-305 733,-317 733,-317 733,-323 727,-329 721,-329"/>
<text text-anchor="middle" x="694.5" y="-308.5" font-family="sans" font-size="10.00">downsample</text>
</g>
<!-- 44&#45;&gt;34 -->
<g id="edge44" class="edge"><title>44&#45;&gt;34</title>
<path fill="none" stroke="grey" stroke-width="2" d="M694.5,-292.697C694.5,-284.983 694.5,-275.712 694.5,-267.112"/>
<polygon fill="grey" stroke="grey" stroke-width="2" points="698,-267.104 694.5,-257.104 691,-267.104 698,-267.104"/>
</g>
<!-- 45 -->
<g id="node46" class="node"><title>45</title>
<path fill="none" stroke="#afd856" stroke-width="2" stroke-dasharray="5,2" d="M935,-329C935,-329 882,-329 882,-329 876,-329 870,-323 870,-317 870,-317 870,-305 870,-305 870,-299 876,-293 882,-293 882,-293 935,-293 935,-293 941,-293 947,-299 947,-305 947,-305 947,-317 947,-317 947,-323 941,-329 935,-329"/>
<text text-anchor="middle" x="908.5" y="-308.5" font-family="sans" font-size="10.00">downsample</text>
</g>
<!-- 45&#45;&gt;35 -->
<g id="edge45" class="edge"><title>45&#45;&gt;35</title>
<path fill="none" stroke="grey" stroke-width="2" d="M908.5,-292.697C908.5,-284.983 908.5,-275.712 908.5,-267.112"/>
<polygon fill="grey" stroke="grey" stroke-width="2" points="912,-267.104 908.5,-257.104 905,-267.104 912,-267.104"/>
</g>
<!-- 46 -->
<g id="node47" class="node"><title>46</title>
<path fill="none" stroke="#afd856" stroke-width="2" stroke-dasharray="5,2" d="M1149,-329C1149,-329 1096,-329 1096,-329 1090,-329 1084,-323 1084,-317 1084,-317 1084,-305 1084,-305 1084,-299 1090,-293 1096,-293 1096,-293 1149,-293 1149,-293 1155,-293 1161,-299 1161,-305 1161,-305 1161,-317 1161,-317 1161,-323 1155,-329 1149,-329"/>
<text text-anchor="middle" x="1122.5" y="-308.5" font-family="sans" font-size="10.00">downsample</text>
</g>
<!-- 46&#45;&gt;36 -->
<g id="edge46" class="edge"><title>46&#45;&gt;36</title>
<path fill="none" stroke="grey" stroke-width="2" d="M1122.5,-292.697C1122.5,-284.983 1122.5,-275.712 1122.5,-267.112"/>
<polygon fill="grey" stroke="grey" stroke-width="2" points="1126,-267.104 1122.5,-257.104 1119,-267.104 1126,-267.104"/>
</g>
<!-- 47 -->
<g id="node48" class="node"><title>47</title>
<path fill="none" stroke="#afd856" stroke-width="2" d="M1363,-329C1363,-329 1310,-329 1310,-329 1304,-329 1298,-323 1298,-317 1298,-317 1298,-305 1298,-305 1298,-299 1304,-293 1310,-293 1310,-293 1363,-293 1363,-293 1369,-293 1375,-299 1375,-305 1375,-305 1375,-317 1375,-317 1375,-323 1369,-329 1363,-329"/>
<text text-anchor="middle" x="1336.5" y="-308.5" font-family="sans" font-size="10.00">downsample</text>
</g>
<!-- 47&#45;&gt;37 -->
<g id="edge47" class="edge"><title>47&#45;&gt;37</title>
<path fill="none" stroke="grey" stroke-width="2" d="M1336.5,-292.697C1336.5,-284.983 1336.5,-275.712 1336.5,-267.112"/>
<polygon fill="grey" stroke="grey" stroke-width="2" points="1340,-267.104 1336.5,-257.104 1333,-267.104 1340,-267.104"/>
</g>
<!-- 48 -->
<g id="node49" class="node"><title>48</title>
<path fill="none" stroke="#afd856" stroke-width="2" d="M1577,-329C1577,-329 1524,-329 1524,-329 1518,-329 1512,-323 1512,-317 1512,-317 1512,-305 1512,-305 1512,-299 1518,-293 1524,-293 1524,-293 1577,-293 1577,-293 1583,-293 1589,-299 1589,-305 1589,-305 1589,-317 1589,-317 1589,-323 1583,-329 1577,-329"/>
<text text-anchor="middle" x="1550.5" y="-308.5" font-family="sans" font-size="10.00">downsample</text>
</g>
<!-- 48&#45;&gt;38 -->
<g id="edge48" class="edge"><title>48&#45;&gt;38</title>
<path fill="none" stroke="grey" stroke-width="2" d="M1550.5,-292.697C1550.5,-284.983 1550.5,-275.712 1550.5,-267.112"/>
<polygon fill="grey" stroke="grey" stroke-width="2" points="1554,-267.104 1550.5,-257.104 1547,-267.104 1554,-267.104"/>
</g>
<!-- 49 -->
<g id="node50" class="node"><title>49</title>
<path fill="none" stroke="#afd856" stroke-width="2" d="M1791,-329C1791,-329 1738,-329 1738,-329 1732,-329 1726,-323 1726,-317 1726,-317 1726,-305 1726,-305 1726,-299 1732,-293 1738,-293 1738,-293 1791,-293 1791,-293 1797,-293 1803,-299 1803,-305 1803,-305 1803,-317 1803,-317 1803,-323 1797,-329 1791,-329"/>
<text text-anchor="middle" x="1764.5" y="-308.5" font-family="sans" font-size="10.00">downsample</text>
</g>
<!-- 49&#45;&gt;39 -->
<g id="edge49" class="edge"><title>49&#45;&gt;39</title>
<path fill="none" stroke="grey" stroke-width="2" d="M1764.5,-292.697C1764.5,-284.983 1764.5,-275.712 1764.5,-267.112"/>
<polygon fill="grey" stroke="grey" stroke-width="2" points="1768,-267.104 1764.5,-257.104 1761,-267.104 1768,-267.104"/>
</g>
<!-- 50 -->
<g id="node51" class="node"><title>50</title>
<path fill="none" stroke="#afd856" stroke-width="2" d="M2005,-329C2005,-329 1952,-329 1952,-329 1946,-329 1940,-323 1940,-317 1940,-317 1940,-305 1940,-305 1940,-299 1946,-293 1952,-293 1952,-293 2005,-293 2005,-293 2011,-293 2017,-299 2017,-305 2017,-305 2017,-317 2017,-317 2017,-323 2011,-329 2005,-329"/>
<text text-anchor="middle" x="1978.5" y="-308.5" font-family="sans" font-size="10.00">downsample</text>
</g>
<!-- 50&#45;&gt;40 -->
<g id="edge50" class="edge"><title>50&#45;&gt;40</title>
<path fill="none" stroke="grey" stroke-width="2" d="M1978.5,-292.697C1978.5,-284.983 1978.5,-275.712 1978.5,-267.112"/>
<polygon fill="grey" stroke="grey" stroke-width="2" points="1982,-267.104 1978.5,-257.104 1975,-267.104 1982,-267.104"/>
</g>
<!-- 51 -->
<g id="node52" class="node"><title>51</title>
<path fill="none" stroke="#56d8a9" stroke-width="2" stroke-dasharray="5,2" d="M93,-401C93,-401 12,-401 12,-401 6,-401 0,-395 0,-389 0,-389 0,-377 0,-377 0,-371 6,-365 12,-365 12,-365 93,-365 93,-365 99,-365 105,-371 105,-377 105,-377 105,-389 105,-389 105,-395 99,-401 93,-401"/>
<text text-anchor="middle" x="52.5" y="-380.5" font-family="sans" font-size="10.00">restrict_noncoding</text>
</g>
<!-- 51&#45;&gt;41 -->
<g id="edge51" class="edge"><title>51&#45;&gt;41</title>
<path fill="none" stroke="grey" stroke-width="2" d="M52.5,-364.697C52.5,-356.983 52.5,-347.712 52.5,-339.112"/>
<polygon fill="grey" stroke="grey" stroke-width="2" points="56.0001,-339.104 52.5,-329.104 49.0001,-339.104 56.0001,-339.104"/>
</g>
<!-- 52 -->
<g id="node53" class="node"><title>52</title>
<path fill="none" stroke="#56d8a9" stroke-width="2" stroke-dasharray="5,2" d="M307,-401C307,-401 226,-401 226,-401 220,-401 214,-395 214,-389 214,-389 214,-377 214,-377 214,-371 220,-365 226,-365 226,-365 307,-365 307,-365 313,-365 319,-371 319,-377 319,-377 319,-389 319,-389 319,-395 313,-401 307,-401"/>
<text text-anchor="middle" x="266.5" y="-380.5" font-family="sans" font-size="10.00">restrict_noncoding</text>
</g>
<!-- 52&#45;&gt;42 -->
<g id="edge52" class="edge"><title>52&#45;&gt;42</title>
<path fill="none" stroke="grey" stroke-width="2" d="M266.5,-364.697C266.5,-356.983 266.5,-347.712 266.5,-339.112"/>
<polygon fill="grey" stroke="grey" stroke-width="2" points="270,-339.104 266.5,-329.104 263,-339.104 270,-339.104"/>
</g>
<!-- 53 -->
<g id="node54" class="node"><title>53</title>
<path fill="none" stroke="#56d8a9" stroke-width="2" stroke-dasharray="5,2" d="M521,-401C521,-401 440,-401 440,-401 434,-401 428,-395 428,-389 428,-389 428,-377 428,-377 428,-371 434,-365 440,-365 440,-365 521,-365 521,-365 527,-365 533,-371 533,-377 533,-377 533,-389 533,-389 533,-395 527,-401 521,-401"/>
<text text-anchor="middle" x="480.5" y="-380.5" font-family="sans" font-size="10.00">restrict_noncoding</text>
</g>
<!-- 53&#45;&gt;43 -->
<g id="edge53" class="edge"><title>53&#45;&gt;43</title>
<path fill="none" stroke="grey" stroke-width="2" d="M480.5,-364.697C480.5,-356.983 480.5,-347.712 480.5,-339.112"/>
<polygon fill="grey" stroke="grey" stroke-width="2" points="484,-339.104 480.5,-329.104 477,-339.104 484,-339.104"/>
</g>
<!-- 54 -->
<g id="node55" class="node"><title>54</title>
<path fill="none" stroke="#56d8a9" stroke-width="2" stroke-dasharray="5,2" d="M735,-401C735,-401 654,-401 654,-401 648,-401 642,-395 642,-389 642,-389 642,-377 642,-377 642,-371 648,-365 654,-365 654,-365 735,-365 735,-365 741,-365 747,-371 747,-377 747,-377 747,-389 747,-389 747,-395 741,-401 735,-401"/>
<text text-anchor="middle" x="694.5" y="-380.5" font-family="sans" font-size="10.00">restrict_noncoding</text>
</g>
<!-- 54&#45;&gt;44 -->
<g id="edge54" class="edge"><title>54&#45;&gt;44</title>
<path fill="none" stroke="grey" stroke-width="2" d="M694.5,-364.697C694.5,-356.983 694.5,-347.712 694.5,-339.112"/>
<polygon fill="grey" stroke="grey" stroke-width="2" points="698,-339.104 694.5,-329.104 691,-339.104 698,-339.104"/>
</g>
<!-- 55 -->
<g id="node56" class="node"><title>55</title>
<path fill="none" stroke="#56d8a9" stroke-width="2" stroke-dasharray="5,2" d="M949,-401C949,-401 868,-401 868,-401 862,-401 856,-395 856,-389 856,-389 856,-377 856,-377 856,-371 862,-365 868,-365 868,-365 949,-365 949,-365 955,-365 961,-371 961,-377 961,-377 961,-389 961,-389 961,-395 955,-401 949,-401"/>
<text text-anchor="middle" x="908.5" y="-380.5" font-family="sans" font-size="10.00">restrict_noncoding</text>
</g>
<!-- 55&#45;&gt;45 -->
<g id="edge55" class="edge"><title>55&#45;&gt;45</title>
<path fill="none" stroke="grey" stroke-width="2" d="M908.5,-364.697C908.5,-356.983 908.5,-347.712 908.5,-339.112"/>
<polygon fill="grey" stroke="grey" stroke-width="2" points="912,-339.104 908.5,-329.104 905,-339.104 912,-339.104"/>
</g>
<!-- 56 -->
<g id="node57" class="node"><title>56</title>
<path fill="none" stroke="#56d8a9" stroke-width="2" stroke-dasharray="5,2" d="M1163,-401C1163,-401 1082,-401 1082,-401 1076,-401 1070,-395 1070,-389 1070,-389 1070,-377 1070,-377 1070,-371 1076,-365 1082,-365 1082,-365 1163,-365 1163,-365 1169,-365 1175,-371 1175,-377 1175,-377 1175,-389 1175,-389 1175,-395 1169,-401 1163,-401"/>
<text text-anchor="middle" x="1122.5" y="-380.5" font-family="sans" font-size="10.00">restrict_noncoding</text>
</g>
<!-- 56&#45;&gt;46 -->
<g id="edge56" class="edge"><title>56&#45;&gt;46</title>
<path fill="none" stroke="grey" stroke-width="2" d="M1122.5,-364.697C1122.5,-356.983 1122.5,-347.712 1122.5,-339.112"/>
<polygon fill="grey" stroke="grey" stroke-width="2" points="1126,-339.104 1122.5,-329.104 1119,-339.104 1126,-339.104"/>
</g>
<!-- 57 -->
<g id="node58" class="node"><title>57</title>
<path fill="none" stroke="#56d8a9" stroke-width="2" stroke-dasharray="5,2" d="M1377,-401C1377,-401 1296,-401 1296,-401 1290,-401 1284,-395 1284,-389 1284,-389 1284,-377 1284,-377 1284,-371 1290,-365 1296,-365 1296,-365 1377,-365 1377,-365 1383,-365 1389,-371 1389,-377 1389,-377 1389,-389 1389,-389 1389,-395 1383,-401 1377,-401"/>
<text text-anchor="middle" x="1336.5" y="-380.5" font-family="sans" font-size="10.00">restrict_noncoding</text>
</g>
<!-- 57&#45;&gt;47 -->
<g id="edge57" class="edge"><title>57&#45;&gt;47</title>
<path fill="none" stroke="grey" stroke-width="2" d="M1336.5,-364.697C1336.5,-356.983 1336.5,-347.712 1336.5,-339.112"/>
<polygon fill="grey" stroke="grey" stroke-width="2" points="1340,-339.104 1336.5,-329.104 1333,-339.104 1340,-339.104"/>
</g>
<!-- 58 -->
<g id="node59" class="node"><title>58</title>
<path fill="none" stroke="#56d8a9" stroke-width="2" stroke-dasharray="5,2" d="M1591,-401C1591,-401 1510,-401 1510,-401 1504,-401 1498,-395 1498,-389 1498,-389 1498,-377 1498,-377 1498,-371 1504,-365 1510,-365 1510,-365 1591,-365 1591,-365 1597,-365 1603,-371 1603,-377 1603,-377 1603,-389 1603,-389 1603,-395 1597,-401 1591,-401"/>
<text text-anchor="middle" x="1550.5" y="-380.5" font-family="sans" font-size="10.00">restrict_noncoding</text>
</g>
<!-- 58&#45;&gt;48 -->
<g id="edge58" class="edge"><title>58&#45;&gt;48</title>
<path fill="none" stroke="grey" stroke-width="2" d="M1550.5,-364.697C1550.5,-356.983 1550.5,-347.712 1550.5,-339.112"/>
<polygon fill="grey" stroke="grey" stroke-width="2" points="1554,-339.104 1550.5,-329.104 1547,-339.104 1554,-339.104"/>
</g>
<!-- 59 -->
<g id="node60" class="node"><title>59</title>
<path fill="none" stroke="#56d8a9" stroke-width="2" d="M1805,-401C1805,-401 1724,-401 1724,-401 1718,-401 1712,-395 1712,-389 1712,-389 1712,-377 1712,-377 1712,-371 1718,-365 1724,-365 1724,-365 1805,-365 1805,-365 1811,-365 1817,-371 1817,-377 1817,-377 1817,-389 1817,-389 1817,-395 1811,-401 1805,-401"/>
<text text-anchor="middle" x="1764.5" y="-380.5" font-family="sans" font-size="10.00">restrict_noncoding</text>
</g>
<!-- 59&#45;&gt;49 -->
<g id="edge59" class="edge"><title>59&#45;&gt;49</title>
<path fill="none" stroke="grey" stroke-width="2" d="M1764.5,-364.697C1764.5,-356.983 1764.5,-347.712 1764.5,-339.112"/>
<polygon fill="grey" stroke="grey" stroke-width="2" points="1768,-339.104 1764.5,-329.104 1761,-339.104 1768,-339.104"/>
</g>
<!-- 60 -->
<g id="node61" class="node"><title>60</title>
<path fill="none" stroke="#56d8a9" stroke-width="2" d="M2019,-401C2019,-401 1938,-401 1938,-401 1932,-401 1926,-395 1926,-389 1926,-389 1926,-377 1926,-377 1926,-371 1932,-365 1938,-365 1938,-365 2019,-365 2019,-365 2025,-365 2031,-371 2031,-377 2031,-377 2031,-389 2031,-389 2031,-395 2025,-401 2019,-401"/>
<text text-anchor="middle" x="1978.5" y="-380.5" font-family="sans" font-size="10.00">restrict_noncoding</text>
</g>
<!-- 60&#45;&gt;50 -->
<g id="edge60" class="edge"><title>60&#45;&gt;50</title>
<path fill="none" stroke="grey" stroke-width="2" d="M1978.5,-364.697C1978.5,-356.983 1978.5,-347.712 1978.5,-339.112"/>
<polygon fill="grey" stroke="grey" stroke-width="2" points="1982,-339.104 1978.5,-329.104 1975,-339.104 1982,-339.104"/>
</g>
<!-- 61 -->
<g id="node62" class="node"><title>61</title>
<path fill="none" stroke="#56d882" stroke-width="2" stroke-dasharray="5,2" d="M77,-478C77,-478 28,-478 28,-478 22,-478 16,-472 16,-466 16,-466 16,-449 16,-449 16,-443 22,-437 28,-437 28,-437 77,-437 77,-437 83,-437 89,-443 89,-449 89,-449 89,-466 89,-466 89,-472 83,-478 77,-478"/>
<text text-anchor="middle" x="52.5" y="-466" font-family="sans" font-size="10.00">subset_vcfs</text>
<text text-anchor="middle" x="52.5" y="-455" font-family="sans" font-size="10.00">chrom: 3L</text>
<text text-anchor="middle" x="52.5" y="-444" font-family="sans" font-size="10.00">pop: KE</text>
</g>
<!-- 61&#45;&gt;51 -->
<g id="edge61" class="edge"><title>61&#45;&gt;51</title>
<path fill="none" stroke="grey" stroke-width="2" d="M52.5,-436.689C52.5,-428.907 52.5,-419.842 52.5,-411.447"/>
<polygon fill="grey" stroke="grey" stroke-width="2" points="56.0001,-411.319 52.5,-401.319 49.0001,-411.32 56.0001,-411.319"/>
</g>
<!-- 62 -->
<g id="node63" class="node"><title>62</title>
<path fill="none" stroke="#56d882" stroke-width="2" stroke-dasharray="5,2" d="M291,-478C291,-478 242,-478 242,-478 236,-478 230,-472 230,-466 230,-466 230,-449 230,-449 230,-443 236,-437 242,-437 242,-437 291,-437 291,-437 297,-437 303,-443 303,-449 303,-449 303,-466 303,-466 303,-472 297,-478 291,-478"/>
<text text-anchor="middle" x="266.5" y="-466" font-family="sans" font-size="10.00">subset_vcfs</text>
<text text-anchor="middle" x="266.5" y="-455" font-family="sans" font-size="10.00">chrom: 3R</text>
<text text-anchor="middle" x="266.5" y="-444" font-family="sans" font-size="10.00">pop: KE</text>
</g>
<!-- 62&#45;&gt;52 -->
<g id="edge62" class="edge"><title>62&#45;&gt;52</title>
<path fill="none" stroke="grey" stroke-width="2" d="M266.5,-436.689C266.5,-428.907 266.5,-419.842 266.5,-411.447"/>
<polygon fill="grey" stroke="grey" stroke-width="2" points="270,-411.319 266.5,-401.319 263,-411.32 270,-411.319"/>
</g>
<!-- 63 -->
<g id="node64" class="node"><title>63</title>
<path fill="none" stroke="#56d882" stroke-width="2" stroke-dasharray="5,2" d="M507,-478C507,-478 454,-478 454,-478 448,-478 442,-472 442,-466 442,-466 442,-449 442,-449 442,-443 448,-437 454,-437 454,-437 507,-437 507,-437 513,-437 519,-443 519,-449 519,-449 519,-466 519,-466 519,-472 513,-478 507,-478"/>
<text text-anchor="middle" x="480.5" y="-466" font-family="sans" font-size="10.00">subset_vcfs</text>
<text text-anchor="middle" x="480.5" y="-455" font-family="sans" font-size="10.00">chrom: 3L</text>
<text text-anchor="middle" x="480.5" y="-444" font-family="sans" font-size="10.00">pop: UGgam</text>
</g>
<!-- 63&#45;&gt;53 -->
<g id="edge63" class="edge"><title>63&#45;&gt;53</title>
<path fill="none" stroke="grey" stroke-width="2" d="M480.5,-436.689C480.5,-428.907 480.5,-419.842 480.5,-411.447"/>
<polygon fill="grey" stroke="grey" stroke-width="2" points="484,-411.319 480.5,-401.319 477,-411.32 484,-411.319"/>
</g>
<!-- 64 -->
<g id="node65" class="node"><title>64</title>
<path fill="none" stroke="#56d882" stroke-width="2" stroke-dasharray="5,2" d="M721,-478C721,-478 668,-478 668,-478 662,-478 656,-472 656,-466 656,-466 656,-449 656,-449 656,-443 662,-437 668,-437 668,-437 721,-437 721,-437 727,-437 733,-443 733,-449 733,-449 733,-466 733,-466 733,-472 727,-478 721,-478"/>
<text text-anchor="middle" x="694.5" y="-466" font-family="sans" font-size="10.00">subset_vcfs</text>
<text text-anchor="middle" x="694.5" y="-455" font-family="sans" font-size="10.00">chrom: 3R</text>
<text text-anchor="middle" x="694.5" y="-444" font-family="sans" font-size="10.00">pop: UGgam</text>
</g>
<!-- 64&#45;&gt;54 -->
<g id="edge64" class="edge"><title>64&#45;&gt;54</title>
<path fill="none" stroke="grey" stroke-width="2" d="M694.5,-436.689C694.5,-428.907 694.5,-419.842 694.5,-411.447"/>
<polygon fill="grey" stroke="grey" stroke-width="2" points="698,-411.319 694.5,-401.319 691,-411.32 698,-411.319"/>
</g>
<!-- 65 -->
<g id="node66" class="node"><title>65</title>
<path fill="none" stroke="#56d882" stroke-width="2" stroke-dasharray="5,2" d="M933.5,-478C933.5,-478 883.5,-478 883.5,-478 877.5,-478 871.5,-472 871.5,-466 871.5,-466 871.5,-449 871.5,-449 871.5,-443 877.5,-437 883.5,-437 883.5,-437 933.5,-437 933.5,-437 939.5,-437 945.5,-443 945.5,-449 945.5,-449 945.5,-466 945.5,-466 945.5,-472 939.5,-478 933.5,-478"/>
<text text-anchor="middle" x="908.5" y="-466" font-family="sans" font-size="10.00">subset_vcfs</text>
<text text-anchor="middle" x="908.5" y="-455" font-family="sans" font-size="10.00">chrom: 3L</text>
<text text-anchor="middle" x="908.5" y="-444" font-family="sans" font-size="10.00">pop: FRgam</text>
</g>
<!-- 65&#45;&gt;55 -->
<g id="edge65" class="edge"><title>65&#45;&gt;55</title>
<path fill="none" stroke="grey" stroke-width="2" d="M908.5,-436.689C908.5,-428.907 908.5,-419.842 908.5,-411.447"/>
<polygon fill="grey" stroke="grey" stroke-width="2" points="912,-411.319 908.5,-401.319 905,-411.32 912,-411.319"/>
</g>
<!-- 66 -->
<g id="node67" class="node"><title>66</title>
<path fill="none" stroke="#56d882" stroke-width="2" stroke-dasharray="5,2" d="M1147.5,-478C1147.5,-478 1097.5,-478 1097.5,-478 1091.5,-478 1085.5,-472 1085.5,-466 1085.5,-466 1085.5,-449 1085.5,-449 1085.5,-443 1091.5,-437 1097.5,-437 1097.5,-437 1147.5,-437 1147.5,-437 1153.5,-437 1159.5,-443 1159.5,-449 1159.5,-449 1159.5,-466 1159.5,-466 1159.5,-472 1153.5,-478 1147.5,-478"/>
<text text-anchor="middle" x="1122.5" y="-466" font-family="sans" font-size="10.00">subset_vcfs</text>
<text text-anchor="middle" x="1122.5" y="-455" font-family="sans" font-size="10.00">chrom: 3R</text>
<text text-anchor="middle" x="1122.5" y="-444" font-family="sans" font-size="10.00">pop: FRgam</text>
</g>
<!-- 66&#45;&gt;56 -->
<g id="edge66" class="edge"><title>66&#45;&gt;56</title>
<path fill="none" stroke="grey" stroke-width="2" d="M1122.5,-436.689C1122.5,-428.907 1122.5,-419.842 1122.5,-411.447"/>
<polygon fill="grey" stroke="grey" stroke-width="2" points="1126,-411.319 1122.5,-401.319 1119,-411.32 1126,-411.319"/>
</g>
<!-- 67 -->
<g id="node68" class="node"><title>67</title>
<path fill="none" stroke="#56d882" stroke-width="2" stroke-dasharray="5,2" d="M1363,-478C1363,-478 1310,-478 1310,-478 1304,-478 1298,-472 1298,-466 1298,-466 1298,-449 1298,-449 1298,-443 1304,-437 1310,-437 1310,-437 1363,-437 1363,-437 1369,-437 1375,-443 1375,-449 1375,-449 1375,-466 1375,-466 1375,-472 1369,-478 1363,-478"/>
<text text-anchor="middle" x="1336.5" y="-466" font-family="sans" font-size="10.00">subset_vcfs</text>
<text text-anchor="middle" x="1336.5" y="-455" font-family="sans" font-size="10.00">chrom: 3L</text>
<text text-anchor="middle" x="1336.5" y="-444" font-family="sans" font-size="10.00">pop: GNgam</text>
</g>
<!-- 67&#45;&gt;57 -->
<g id="edge67" class="edge"><title>67&#45;&gt;57</title>
<path fill="none" stroke="grey" stroke-width="2" d="M1336.5,-436.689C1336.5,-428.907 1336.5,-419.842 1336.5,-411.447"/>
<polygon fill="grey" stroke="grey" stroke-width="2" points="1340,-411.319 1336.5,-401.319 1333,-411.32 1340,-411.319"/>
</g>
<!-- 68 -->
<g id="node69" class="node"><title>68</title>
<path fill="none" stroke="#56d882" stroke-width="2" stroke-dasharray="5,2" d="M1577,-478C1577,-478 1524,-478 1524,-478 1518,-478 1512,-472 1512,-466 1512,-466 1512,-449 1512,-449 1512,-443 1518,-437 1524,-437 1524,-437 1577,-437 1577,-437 1583,-437 1589,-443 1589,-449 1589,-449 1589,-466 1589,-466 1589,-472 1583,-478 1577,-478"/>
<text text-anchor="middle" x="1550.5" y="-466" font-family="sans" font-size="10.00">subset_vcfs</text>
<text text-anchor="middle" x="1550.5" y="-455" font-family="sans" font-size="10.00">chrom: 3R</text>
<text text-anchor="middle" x="1550.5" y="-444" font-family="sans" font-size="10.00">pop: GNgam</text>
</g>
<!-- 68&#45;&gt;58 -->
<g id="edge68" class="edge"><title>68&#45;&gt;58</title>
<path fill="none" stroke="grey" stroke-width="2" d="M1550.5,-436.689C1550.5,-428.907 1550.5,-419.842 1550.5,-411.447"/>
<polygon fill="grey" stroke="grey" stroke-width="2" points="1554,-411.319 1550.5,-401.319 1547,-411.32 1554,-411.319"/>
</g>
<!-- 69 -->
<g id="node70" class="node"><title>69</title>
<path fill="none" stroke="#56d882" stroke-width="2" d="M1789,-478C1789,-478 1740,-478 1740,-478 1734,-478 1728,-472 1728,-466 1728,-466 1728,-449 1728,-449 1728,-443 1734,-437 1740,-437 1740,-437 1789,-437 1789,-437 1795,-437 1801,-443 1801,-449 1801,-449 1801,-466 1801,-466 1801,-472 1795,-478 1789,-478"/>
<text text-anchor="middle" x="1764.5" y="-466" font-family="sans" font-size="10.00">subset_vcfs</text>
<text text-anchor="middle" x="1764.5" y="-455" font-family="sans" font-size="10.00">chrom: 3L</text>
<text text-anchor="middle" x="1764.5" y="-444" font-family="sans" font-size="10.00">pop: GHcol</text>
</g>
<!-- 69&#45;&gt;59 -->
<g id="edge69" class="edge"><title>69&#45;&gt;59</title>
<path fill="none" stroke="grey" stroke-width="2" d="M1764.5,-436.689C1764.5,-428.907 1764.5,-419.842 1764.5,-411.447"/>
<polygon fill="grey" stroke="grey" stroke-width="2" points="1768,-411.319 1764.5,-401.319 1761,-411.32 1768,-411.319"/>
</g>
<!-- 70 -->
<g id="node71" class="node"><title>70</title>
<path fill="none" stroke="#56d882" stroke-width="2" d="M2003,-478C2003,-478 1954,-478 1954,-478 1948,-478 1942,-472 1942,-466 1942,-466 1942,-449 1942,-449 1942,-443 1948,-437 1954,-437 1954,-437 2003,-437 2003,-437 2009,-437 2015,-443 2015,-449 2015,-449 2015,-466 2015,-466 2015,-472 2009,-478 2003,-478"/>
<text text-anchor="middle" x="1978.5" y="-466" font-family="sans" font-size="10.00">subset_vcfs</text>
<text text-anchor="middle" x="1978.5" y="-455" font-family="sans" font-size="10.00">chrom: 3R</text>
<text text-anchor="middle" x="1978.5" y="-444" font-family="sans" font-size="10.00">pop: GHcol</text>
</g>
<!-- 70&#45;&gt;60 -->
<g id="edge70" class="edge"><title>70&#45;&gt;60</title>
<path fill="none" stroke="grey" stroke-width="2" d="M1978.5,-436.689C1978.5,-428.907 1978.5,-419.842 1978.5,-411.447"/>
<polygon fill="grey" stroke="grey" stroke-width="2" points="1982,-411.319 1978.5,-401.319 1975,-411.32 1982,-411.319"/>
</g>
</g>
</svg>
