<?xml version="1.0" encoding="UTF-8" standalone="no"?>
<!DOCTYPE svg PUBLIC "-//W3C//DTD SVG 1.1//EN"
 "http://www.w3.org/Graphics/SVG/1.1/DTD/svg11.dtd">
<!-- Generated by graphviz version 2.38.0 (20140413.2041)
 -->
<!-- Title: snakemake_dag Pages: 1 -->
<svg width="194pt" height="265pt"
 viewBox="0.00 0.00 194.00 265.00" xmlns="http://www.w3.org/2000/svg" xmlns:xlink="http://www.w3.org/1999/xlink">
<g id="graph0" class="graph" transform="scale(1 1) rotate(0) translate(4 261)">
<title>snakemake_dag</title>
<polygon fill="white" stroke="none" points="-4,4 -4,-261 190,-261 190,4 -4,4"/>
<!-- 0 -->
<g id="node1" class="node"><title>0</title>
<path fill="none" stroke="#59d856" stroke-width="2" stroke-dasharray="5,2" d="M108,-36C108,-36 78,-36 78,-36 72,-36 66,-30 66,-24 66,-24 66,-12 66,-12 66,-6 72,-0 78,-0 78,-0 108,-0 108,-0 114,-0 120,-6 120,-12 120,-12 120,-24 120,-24 120,-30 114,-36 108,-36"/>
<text text-anchor="middle" x="93" y="-15.5" font-family="sans" font-size="10.00">cat_ibd</text>
</g>
<!-- 1 -->
<g id="node2" class="node"><title>1</title>
<path fill="none" stroke="#d8ac56" stroke-width="2" stroke-dasharray="5,2" d="M72,-108C72,-108 12,-108 12,-108 6,-108 7.10543e-15,-102 7.10543e-15,-96 7.10543e-15,-96 7.10543e-15,-84 7.10543e-15,-84 7.10543e-15,-78 6,-72 12,-72 12,-72 72,-72 72,-72 78,-72 84,-78 84,-84 84,-84 84,-96 84,-96 84,-102 78,-108 72,-108"/>
<text text-anchor="middle" x="42" y="-87.5" font-family="sans" font-size="10.00">ibd_segments</text>
</g>
<!-- 1&#45;&gt;0 -->
<g id="edge1" class="edge"><title>1&#45;&gt;0</title>
<path fill="none" stroke="grey" stroke-width="2" d="M54.6067,-71.6966C60.5974,-63.4741 67.8765,-53.4832 74.4792,-44.4207"/>
<polygon fill="grey" stroke="grey" stroke-width="2" points="77.4785,-46.2477 80.5383,-36.1043 71.8208,-42.1257 77.4785,-46.2477"/>
</g>
<!-- 2 -->
<g id="node3" class="node"><title>2</title>
<path fill="none" stroke="#d8ac56" stroke-width="2" stroke-dasharray="5,2" d="M174,-108C174,-108 114,-108 114,-108 108,-108 102,-102 102,-96 102,-96 102,-84 102,-84 102,-78 108,-72 114,-72 114,-72 174,-72 174,-72 180,-72 186,-78 186,-84 186,-84 186,-96 186,-96 186,-102 180,-108 174,-108"/>
<text text-anchor="middle" x="144" y="-87.5" font-family="sans" font-size="10.00">ibd_segments</text>
</g>
<!-- 2&#45;&gt;0 -->
<g id="edge2" class="edge"><title>2&#45;&gt;0</title>
<path fill="none" stroke="grey" stroke-width="2" d="M131.393,-71.6966C125.403,-63.4741 118.124,-53.4832 111.521,-44.4207"/>
<polygon fill="grey" stroke="grey" stroke-width="2" points="114.179,-42.1257 105.462,-36.1043 108.522,-46.2477 114.179,-42.1257"/>
</g>
<!-- 3 -->
<g id="node4" class="node"><title>3</title>
<path fill="none" stroke="#d85656" stroke-width="2" stroke-dasharray="5,2" d="M63,-180C63,-180 21,-180 21,-180 15,-180 9,-174 9,-168 9,-168 9,-156 9,-156 9,-150 15,-144 21,-144 21,-144 63,-144 63,-144 69,-144 75,-150 75,-156 75,-156 75,-168 75,-168 75,-174 69,-180 63,-180"/>
<text text-anchor="middle" x="42" y="-159.5" font-family="sans" font-size="10.00">unzip_vcfs</text>
</g>
<!-- 3&#45;&gt;1 -->
<g id="edge3" class="edge"><title>3&#45;&gt;1</title>
<path fill="none" stroke="grey" stroke-width="2" d="M42,-143.697C42,-135.983 42,-126.712 42,-118.112"/>
<polygon fill="grey" stroke="grey" stroke-width="2" points="45.5001,-118.104 42,-108.104 38.5001,-118.104 45.5001,-118.104"/>
</g>
<!-- 4 -->
<g id="node5" class="node"><title>4</title>
<path fill="none" stroke="#d85656" stroke-width="2" stroke-dasharray="5,2" d="M165,-180C165,-180 123,-180 123,-180 117,-180 111,-174 111,-168 111,-168 111,-156 111,-156 111,-150 117,-144 123,-144 123,-144 165,-144 165,-144 171,-144 177,-150 177,-156 177,-156 177,-168 177,-168 177,-174 171,-180 165,-180"/>
<text text-anchor="middle" x="144" y="-159.5" font-family="sans" font-size="10.00">unzip_vcfs</text>
</g>
<!-- 4&#45;&gt;2 -->
<g id="edge4" class="edge"><title>4&#45;&gt;2</title>
<path fill="none" stroke="grey" stroke-width="2" d="M144,-143.697C144,-135.983 144,-126.712 144,-118.112"/>
<polygon fill="grey" stroke="grey" stroke-width="2" points="147.5,-118.104 144,-108.104 140.5,-118.104 147.5,-118.104"/>
</g>
<!-- 5 -->
<g id="node6" class="node"><title>5</title>
<path fill="none" stroke="#56a9d8" stroke-width="2" stroke-dasharray="5,2" d="M67,-257C67,-257 17,-257 17,-257 11,-257 5,-251 5,-245 5,-245 5,-228 5,-228 5,-222 11,-216 17,-216 17,-216 67,-216 67,-216 73,-216 79,-222 79,-228 79,-228 79,-245 79,-245 79,-251 73,-257 67,-257"/>
<text text-anchor="middle" x="42" y="-245" font-family="sans" font-size="10.00">subset_vcfs</text>
<text text-anchor="middle" x="42" y="-234" font-family="sans" font-size="10.00">chrom: 3L</text>
<text text-anchor="middle" x="42" y="-223" font-family="sans" font-size="10.00">pop: FRgam</text>
</g>
<!-- 5&#45;&gt;3 -->
<g id="edge5" class="edge"><title>5&#45;&gt;3</title>
<path fill="none" stroke="grey" stroke-width="2" d="M42,-215.689C42,-207.907 42,-198.842 42,-190.447"/>
<polygon fill="grey" stroke="grey" stroke-width="2" points="45.5001,-190.319 42,-180.319 38.5001,-190.32 45.5001,-190.319"/>
</g>
<!-- 6 -->
<g id="node7" class="node"><title>6</title>
<path fill="none" stroke="#56a9d8" stroke-width="2" stroke-dasharray="5,2" d="M169,-257C169,-257 119,-257 119,-257 113,-257 107,-251 107,-245 107,-245 107,-228 107,-228 107,-222 113,-216 119,-216 119,-216 169,-216 169,-216 175,-216 181,-222 181,-228 181,-228 181,-245 181,-245 181,-251 175,-257 169,-257"/>
<text text-anchor="middle" x="144" y="-245" font-family="sans" font-size="10.00">subset_vcfs</text>
<text text-anchor="middle" x="144" y="-234" font-family="sans" font-size="10.00">chrom: 3R</text>
<text text-anchor="middle" x="144" y="-223" font-family="sans" font-size="10.00">pop: FRgam</text>
</g>
<!-- 6&#45;&gt;4 -->
<g id="edge6" class="edge"><title>6&#45;&gt;4</title>
<path fill="none" stroke="grey" stroke-width="2" d="M144,-215.689C144,-207.907 144,-198.842 144,-190.447"/>
<polygon fill="grey" stroke="grey" stroke-width="2" points="147.5,-190.319 144,-180.319 140.5,-190.32 147.5,-190.319"/>
</g>
</g>
</svg>
